<?xml version="1.0" encoding="UTF-8"?><svg id="Layer_1" xmlns="http://www.w3.org/2000/svg" xmlns:xlink="http://www.w3.org/1999/xlink" viewBox="0 0 173.75 43.1"><defs><style>.cls-1{fill:#fff;}.cls-2{fill:#d6daab;}.cls-3{clip-path:url(#clippath-1);}.cls-4{clip-path:url(#clippath);}.cls-5{fill:none;}</style><clipPath id="clippath"><rect class="cls-5" x="3.39" y="2.72" width="168" height="17.22"/></clipPath><clipPath id="clippath-1"><rect class="cls-5" x="3.39" y="32.18" width="168" height="8.08"/></clipPath></defs><g class="cls-4"><g><path class="cls-1" d="M83.33,16.67c-.43-1.88-1.07-3.67-2.81-4.92,.31-.16,.48-.26,.65-.35,1.88-1.01,2.53-2.43,2.22-4.85-.25-1.89-1.18-2.83-3.24-3.36-1.37-.35-2.76-.31-4.15-.34-1.39-.03-2.79-.02-4.18,.02-.79,.02-1.08,.39-.71,1.02,.6,.42,.9-.33,1.38-.08,.46,.48,.33,1.1,.33,1.67,.01,3.64,0,7.29,0,10.93,0,1.81,0,1.81-1.19,3.16,1.67,.11,3.21,.1,5.01,0-.51-.68-1.09-.99-1.17-1.62-.21-1.91-.16-3.8-.05-5.65h0c2.48-.59,3.99,.23,4.63,2.4,.32,1.09,.59,2.19,.91,3.27,.19,.63,.48,1.26,1.17,1.43,1.14,.28,2.3,.37,3.55-.06-1.23-.55-2.06-1.36-2.36-2.67Zm-7.88-5.36c-.19-2.58-.13-5.11-.04-7.59,3-1.11,5.09,.19,5.22,3.17,0,.1,0,.19,0,.29,.08,3.59-1.32,4.76-5.19,4.12Z"/><path class="cls-1" d="M16.08,14.77c-.06-.8-.28-.85-1.1-.4-.14,.51,.51,.72,.46,1.19-1.03,2.9-3.58,4.12-7.33,3.43h0c-.08-.23-.17-.36-.17-.5-.01-4.42-.02-8.85,0-13.27,0-.56,.04-1.2,.72-1.54,.12,.04,.26,.07,.39,.14,.45,.23,.93,.32,1.04-.3,.1-.52-.39-.65-.79-.65-1.69-.02-3.38-.03-5.07,0-.64,.01-1.04,.3-.75,.89,.57,.55,1.03-.27,1.48,.11,.45,.57,.35,1.23,.35,1.86,.01,3.15,.01,6.29,0,9.44,0,1.48,.27,3.01-.92,4.29,2.27,.38,10.48,.25,11.53-.14,.26-.45,.19-.95,.19-1.43,0-1.03,.04-2.07-.04-3.1Z"/><path class="cls-1" d="M114.42,16.08c-.43-1.68-1.09-3.26-2.63-4.23h0c.11-.3,.33-.33,.5-.41,1.96-.97,2.68-2.45,2.37-4.9-.23-1.83-1.25-2.86-3.26-3.35-1.47-.36-2.96-.32-4.45-.35-1.29-.03-2.58-.03-3.87,.03-.72,.03-1.15,.34-.7,1.01,.58,.41,.9-.32,1.38-.07,.44,.59,.35,1.3,.35,1.98,.01,3.39,0,6.79,0,10.18,0,1.25,.04,2.53-1.33,3.59,1.86,.1,3.4,.12,5.15,0-.55-.69-1.19-.96-1.22-1.61-.11-1.9-.1-3.8-.02-5.65,2.41-.6,3.96,.21,4.58,2.27,.29,.94,.48,1.91,.75,2.85,.62,2.14,2.62,2.9,4.91,1.74-1.71-.44-2.16-1.7-2.52-3.09Zm-7.69-4.64c-.16-2.74-.09-5.27-.07-7.91,1.68-.25,3.21-.41,4.42,.84,1.04,1.08,1.17,4.39,.28,5.77-1.1,1.69-2.8,1.31-4.63,1.31Z"/><path class="cls-1" d="M86.98,2.92c-.33,1.5-.24,2.78-.14,4.04,.06,.74,.51,.89,1.17,.27-.73-.9-.7-1.76,.07-2.61,1.05-1.15,3.09-1.57,4.63-.9,.19,.47,.12,.97,.13,1.45,0,3.69,0,7.38,0,11.07,0,1.97-.02,2-1.46,3.31,1.84,.12,3.54,.12,5.37-.12-1.52-.76-1.42-2.06-1.41-3.34,.02-3.35,0-6.69,.01-10.04,0-.78-.1-1.57,.19-2.56,1.63-.28,3.09-.05,4.34,1.02,.93,.79,1.14,1.76,.39,2.81,.68,.54,1.08,.28,1.13-.32,.11-1.31,.21-2.63-.13-4.1-4.81,0-9.55-.05-14.28,.03Z"/><path class="cls-1" d="M52.1,12.88c-.47,0-1.04-.12-1.27,.49-.07,.19,0,.39,.18,.52,.58,.45,.84-.33,1.4-.37h0c.65,1.02,.81,1.83,.66,3.41-.11,1.17-.58,1.87-1.75,2.09-2.93,.55-5.24,.18-6.15-3.41-.67-2.66-.66-5.36-.17-8.05,.11-.58,.28-1.15,.52-1.69,.71-1.63,1.95-2.57,3.79-2.64,1.94-.08,3.52,.56,4.52,2.28,.42,.72,.78,1.49,.39,2.37-.23,.51-.06,.84,.74,.95,.57-1.88,.3-3.77,.19-5.86-.61,1.11-1.27,.55-1.9,.34-2.5-.82-5.02-.86-7.41,.26-3.03,1.41-4.25,4.02-4.35,7.18-.11,3.28,.71,6.26,3.82,7.94,3.25,1.76,6.61,1.06,9.87,.05,.52-2.01-.32-4.09,1.26-5.79-1.57-.19-2.96-.09-4.34-.09Z"/><path class="cls-1" d="M66.92,18.57c-1.56,.56-3.14,.82-4.97,.4-.02-2.36-.19-4.68,.1-7.02,1.89-.32,3.54-.33,4.76,1.42,.23-.8,.29-1.37-.06-1.91-.71-.37-1.47-.21-2.21-.24-.68-.02-1.36,0-2.03,0,1.43-.39,2.89,0,4.29-.42,.23-.6,.31-1.14-.08-1.8-1.24,1.67-2.86,1.66-4.7,1.4-.15-2.39-.22-4.66,.05-7,1.37-.19,2.59-.11,3.82,.14,1.11,.22,2,.75,2.78,1.59,.75,.8,.1,1.54,.01,2.24,.55,.47,.99,.34,1.07-.2,.21-1.39,.27-2.8-.09-4.32-3.84,0-7.56,0-11.28,0-.42,0-.86,.13-.81,.65,.06,.54,.47,.55,.9,.4,.2-.07,.38-.11,.59,.16,.05,.3,.18,.68,.18,1.06,.07,4.04,.11,8.07-.02,12.1-.02,.81-.23,1.55-1.13,2.18h0c2.25,.39,10.77,.28,12-.14-.02-1.36,.24-2.79-.25-4.23-.65,1.47-1.27,2.94-2.92,3.53Z"/><polygon class="cls-1" points="157.87 19.42 157.86 19.42 157.87 19.42 157.87 19.42"/><path class="cls-1" d="M158.1,2.92c-1.88-.18-3.77-.19-5.64,0-.72,.07-.8,.61-.34,1.04,.6,.25,.87-.5,1.39-.17,.53,.52,.46,1.24,.46,1.91,.01,3.54,.01,7.07,0,10.61,0,1.19,.04,2.41-1.41,3.08,1.83,.3,3.52,.24,5.3,.02-1.23-.76-1.29-1.89-1.29-3.04,0-3.54,0-7.07,0-10.61,0-.59,.02-1.18,.29-1.73,.06-.13,.18-.23,.22-.28,.55-.16,.84,.53,1.43,.14,.34-.44,.23-.92-.41-.98Z"/><path class="cls-1" d="M170.94,14c-.53-1.1-1.37-1.92-2.37-2.6-1.36-.91-2.73-1.8-4.09-2.7-.67-.44-1.29-.93-1.67-1.65-.71-1.33-.23-2.83,1.13-3.5,2.28-1.13,5.5,.42,6.03,2.89,.08,.36,.11,.66-.17,.95-.23,.23-.3,.52-.1,.8,.11,.16,.3,.26,.52,.21,.41-.1,.55-.42,.55-.78,.01-1.22,.16-2.45-.12-3.72h0c-1.23-.7-2.58-.96-3.97-1.1-1.55-.15-3.08-.14-4.52,.6-2.19,1.13-2.78,3.5-1.36,5.49,.64,.9,1.51,1.56,2.42,2.16,1.2,.79,2.42,1.56,3.63,2.33,.95,.61,1.69,1.38,2,2.48,.49,1.75-.43,3.19-2.24,3.45-1.71,.24-3.31-.06-4.48-1.43-1.03-1.2-1.65-2.55-.62-4.13-.87-.58-1.19-.19-1.22,.53-.05,1.18-.01,2.36-.02,3.54,0,.56,.27,.93,.78,1.14,2.57,1.05,5.22,1.33,7.85,.38,2.29-.83,3.09-3.15,2.04-5.35Z"/><path class="cls-1" d="M31.11,17.24c-1.31-3.92-2.66-7.83-3.97-11.75-.18-.54-.46-1.11-.06-1.72,.14,.02,.3,.01,.41,.07,.46,.25,.92,.34,1.03-.3,.09-.49-.35-.65-.78-.68-.44-.03-.89-.03-1.34-.03-1.6,0-1.59,.01-2.14,1.46-1.42,3.78-2.83,7.56-4.28,11.33-.52,1.37-1.07,2.74-2.58,3.86,1.82,.16,3.3,.12,4.84,.03-.15-.43-.44-.41-.65-.52-1.26-.68-1.49-3.33-.34-4.2,.15-.11,.36-.19,.55-.19,1.77-.01,3.55-.15,5.42,.09,.4,1.6,1.77,2.96,.46,4.89,1.14,0,2.08,.02,3.01,0,.59-.01,1.19,.11,1.98-.24h0c-.79-.64-1.29-1.29-1.57-2.1Zm-9.56-3.8h0c.72-2.38,1.57-4.53,2.4-6.69l.39-.03c.79,2.17,1.58,4.33,2.46,6.73-1.83,.18-3.42,.18-5.24,0Z"/><polygon class="cls-1" points="136.11 18.57 136.11 18.57 136.11 18.57 136.11 18.57"/><path class="cls-1" d="M145.31,3.24c-2.75-.65-5.55-.32-8.33-.38-.48,0-1.17-.02-1.04,.7,.14,.76,.76,.33,1.21,.26,.08-.01,.18,.06,.26,.1,.74,1.5,.7,13.35-.05,14.68-.42,.22-.83-.39-1.26-.02-.1,.87-.08,1.01,.63,1.02,2.98,.04,5.98,.27,8.92-.42,3.03-.71,4.76-2.68,5.26-5.73,.24-1.47,.25-2.93-.02-4.41-.58-3.16-2.47-5.06-5.6-5.8Zm2.34,11.76c-.64,2.81-2.88,4.62-6.93,4.01h0V3.58c3.02-.81,5.69,.49,6.68,3.27,.95,2.67,.88,5.42,.26,8.15Z"/><path class="cls-1" d="M129.16,3.02c2.17,.51,2.35,2.19,2.43,3.85,.09,2.01,.02,4.03,.04,6.05,0,.84-.11,1.67-.29,2.49-.42,1.89-1.86,3.06-3.81,3.13-2.23,.08-3.9-1.12-4.22-3.33-.49-3.42-.25-6.87-.14-10.3,.02-.48,.14-.99,.69-1.23,.45-.1,.72,.56,1.22,.31,.28-.78,.28-.95-.12-.99-2.03-.2-4.06-.24-6.08,.03-.43,.06-.5,.56-.14,.91h0c.6,.27,.93-.45,1.43-.07,.49,.49,.4,1.15,.41,1.78,.02,2.85-.05,5.71,.06,8.56,.12,3.13,1.94,5.15,4.77,5.52,3.86,.5,6.57-1.87,6.58-5.74,0-2.41,.03-4.82,.04-7.23,0-1.73,.54-3.1,2.46-3.52,.02,0,0-.15,0-.22h-5.32Z"/></g></g><g class="cls-3"><g><path class="cls-2" d="M10.17,38.02h.85c-.77,1.42-1.94,2.12-3.5,2.12-1.13,0-2.08-.37-2.85-1.1-.75-.78-1.14-1.72-1.16-2.8,0-1.13,.37-2.07,1.12-2.82,.75-.74,1.7-1.12,2.84-1.13,1.1,0,2.02,.34,2.74,1.03,.33,.31,.59,.67,.77,1.08h-.86c-.26-.4-.53-.69-.81-.87,0,0-.02-.01-.03-.02-.51-.34-1.11-.51-1.79-.51-.94,0-1.72,.32-2.34,.97-.59,.61-.88,1.36-.88,2.25s.31,1.64,.94,2.28c.63,.63,1.39,.95,2.28,.95,.73,0,1.36-.21,1.89-.63,.21-.16,.46-.42,.77-.8h0Z"/><path class="cls-2" d="M7.52,40.26c-1.16,0-2.14-.38-2.92-1.13-.77-.81-1.17-1.78-1.2-2.88,0-1.16,.39-2.13,1.15-2.9,.77-.76,1.75-1.16,2.92-1.16,1.13,0,2.08,.35,2.82,1.06,.34,.32,.61,.69,.8,1.11l.07,.16h-1.1l-.03-.05c-.25-.38-.51-.66-.77-.84l-.03-.02c-.49-.33-1.07-.49-1.73-.49-.9,0-1.66,.32-2.25,.94-.56,.58-.85,1.32-.85,2.17s.31,1.59,.91,2.2c.6,.6,1.34,.91,2.21,.92,.7,0,1.31-.2,1.82-.6,.2-.15,.45-.41,.75-.78l.03-.04h1.09l-.09,.16c-.79,1.45-2,2.18-3.6,2.18h0Zm-.05-7.86c-1.11,0-2.04,.38-2.76,1.1-.72,.73-1.08,1.65-1.08,2.74,.03,1.05,.41,1.96,1.14,2.73,.74,.7,1.67,1.06,2.76,1.06,1.44,0,2.55-.64,3.3-1.9h-.6c-.3,.37-.54,.62-.75,.78-.55,.43-1.21,.65-1.96,.65-.92,0-1.72-.34-2.37-.99-.65-.66-.97-1.45-.97-2.36s.31-1.7,.91-2.32c.64-.67,1.45-1.01,2.42-1.01,.7,0,1.33,.18,1.85,.53,.01,0,.03,.02,.05,.03,.27,.17,.54,.46,.79,.84h.62c-.17-.33-.4-.63-.67-.88-.7-.66-1.6-1-2.67-1Z"/><path class="cls-2" d="M18.07,40.02l3.28-7.59h.86l3.29,7.59h-.84l-1.11-2.56h-3.56l-1.12,2.56h-.81Zm2.21-3.24h2.97l-1.47-3.48-1.5,3.48Z"/><path class="cls-2" d="M25.67,40.13h-1.08l-1.11-2.56h-3.41l-1.12,2.56h-1.05l3.37-7.81h1.01l3.39,7.81h0Zm-.93-.22h.59l-3.19-7.36h-.71l-3.18,7.36h.56l1.12-2.56h3.71l1.11,2.56h0Zm-1.31-3.02h-3.31l1.67-3.88,1.64,3.88Zm-2.97-.22h2.63l-1.3-3.08-1.33,3.08h0Z"/><path class="cls-2" d="M32.56,37.89h.82c.05,.42,.17,.76,.36,1,.33,.35,.74,.55,1.23,.56,.55,0,.97-.21,1.25-.64,.17-.25,.26-.55,.26-.87,0-.48-.18-.84-.53-1.09-.23-.16-.63-.33-1.18-.5-.64-.19-1.06-.37-1.26-.52-.05-.04-.11-.09-.17-.14-.36-.33-.54-.78-.54-1.34,0-.69,.26-1.24,.8-1.63,.37-.27,.81-.41,1.32-.41,.78,0,1.37,.28,1.76,.83,.24,.34,.37,.75,.38,1.22h-.8c-.04-.59-.28-.99-.74-1.21-.19-.1-.4-.14-.63-.14-.5,0-.87,.2-1.12,.58-.14,.22-.21,.46-.21,.74,0,.37,.12,.66,.36,.88,.17,.14,.51,.28,1.04,.44,.03,.01,.06,.02,.09,.03,.66,.2,1.13,.4,1.42,.6,.48,.42,.74,.97,.77,1.62,0,.74-.28,1.32-.83,1.75-.41,.33-.91,.49-1.48,.49-.86,0-1.5-.3-1.95-.91-.27-.38-.42-.83-.44-1.34h0Z"/><path class="cls-2" d="M34.95,40.26c-.89,0-1.57-.32-2.04-.96-.28-.39-.44-.86-.47-1.4v-.12s1.03,0,1.03,0v.1c.06,.4,.17,.72,.35,.94,.31,.33,.68,.5,1.15,.52,.51,0,.89-.19,1.15-.59,.16-.24,.24-.51,.24-.81,0-.44-.16-.77-.48-1-.22-.16-.61-.32-1.15-.49-.66-.2-1.08-.38-1.3-.54-.06-.04-.12-.09-.17-.15-.38-.35-.57-.83-.57-1.42,0-.72,.28-1.31,.84-1.72,.39-.29,.86-.43,1.39-.43,.81,0,1.44,.3,1.85,.88,.25,.36,.39,.79,.4,1.28v.12h-1.01v-.1c-.04-.55-.26-.91-.68-1.12-.17-.09-.37-.13-.58-.13-.46,0-.79,.17-1.02,.53-.13,.2-.19,.43-.19,.68,0,.34,.11,.6,.32,.8,.15,.12,.48,.27,.99,.42,.04,.02,.06,.02,.08,.03,.69,.21,1.16,.41,1.46,.63,.51,.45,.78,1.02,.81,1.71,0,.78-.29,1.4-.87,1.85-.43,.34-.95,.52-1.55,.52Zm-2.27-2.26c.04,.45,.18,.84,.41,1.17,.42,.58,1.03,.87,1.85,.87,.54,0,1.02-.16,1.41-.47,.53-.41,.79-.96,.79-1.67-.03-.62-.27-1.14-.73-1.54-.26-.19-.73-.39-1.37-.58-.03,0-.08-.02-.11-.04-.53-.15-.88-.31-1.06-.46-.27-.24-.4-.57-.4-.97,0-.29,.08-.56,.23-.8,.27-.42,.68-.64,1.21-.64,.25,0,.48,.05,.68,.15,.46,.22,.73,.63,.79,1.2h.57c-.03-.4-.15-.75-.36-1.05-.38-.53-.92-.78-1.67-.78-.48,0-.91,.13-1.26,.39-.5,.38-.75,.88-.75,1.54,0,.53,.17,.95,.5,1.26,.05,.05,.11,.1,.16,.14,.19,.15,.6,.32,1.23,.51,.57,.18,.97,.35,1.21,.52,.38,.27,.58,.66,.58,1.18,0,.35-.09,.66-.28,.94-.3,.46-.76,.69-1.34,.69-.52-.02-.96-.22-1.31-.6-.2-.24-.32-.56-.38-.96h-.59Z"/><path class="cls-2" d="M44.27,40.02l3.28-7.59h.86l3.29,7.59h-.84l-1.11-2.56h-3.56l-1.12,2.56h-.81Zm2.21-3.24h2.97l-1.47-3.48-1.5,3.48Z"/><path class="cls-2" d="M51.87,40.13h-1.08l-1.11-2.56h-3.41l-1.12,2.56h-1.05l3.38-7.81h1.01l3.39,7.81Zm-.93-.22h.59l-3.19-7.36h-.71l-3.18,7.36h.56l1.12-2.56h3.71l1.11,2.56Zm-1.31-3.02h-3.31l1.67-3.88,1.64,3.88Zm-2.97-.22h2.63l-1.3-3.08-1.33,3.08h0Z"/><path class="cls-2" d="M68.9,40.02v-7.59h1.8c1.16,0,2.04,.15,2.66,.45,.09,.05,.18,.1,.26,.14,1.05,.62,1.63,1.58,1.73,2.87,0,.12,0,.23,0,.35,0,1.41-.56,2.46-1.7,3.15l-.07,.05c-.65,.38-1.53,.57-2.63,.57h-2.06Zm.77-.69h1.07c1.14,0,1.99-.18,2.53-.52,.08-.05,.15-.1,.22-.16,.68-.54,1.04-1.29,1.09-2.24,0-.06,0-.13,0-.19,0-.97-.32-1.73-.97-2.31-.13-.11-.27-.21-.41-.3-.54-.33-1.37-.49-2.46-.49h-1.07v6.21h0Z"/><path class="cls-2" d="M70.96,40.13h-2.17v-7.81h1.91c1.17,0,2.08,.15,2.71,.46,.09,.05,.18,.1,.26,.15,1.08,.64,1.68,1.64,1.78,2.96,0,.12,.01,.24,.01,.36,0,1.44-.59,2.54-1.75,3.25l-.07,.05c-.67,.39-1.57,.58-2.69,.58h0Zm-1.95-.22h1.95c1.08,0,1.94-.18,2.57-.55l.06-.04c1.1-.67,1.65-1.7,1.65-3.06,0-.11,0-.23,0-.34-.09-1.25-.65-2.18-1.67-2.79-.08-.05-.17-.1-.26-.14-.59-.29-1.47-.44-2.61-.44h-1.69v7.36h0Zm1.72-.46h-1.18v-6.43h1.18c1.11,0,1.96,.17,2.52,.51,.15,.09,.29,.19,.43,.31,.67,.6,1.01,1.4,1.01,2.4,0,.07,0,.14-.01,.21-.05,.97-.43,1.75-1.13,2.31-.07,.06-.15,.11-.23,.16-.56,.36-1.43,.54-2.59,.54h0Zm-.95-.22h.95c1.12,0,1.95-.17,2.47-.51,.07-.04,.14-.1,.21-.15,.65-.52,1-1.24,1.04-2.16,0-.07,0-.13,0-.19,0-.93-.32-1.68-.93-2.23-.12-.1-.26-.2-.4-.29-.52-.32-1.33-.48-2.4-.48h-.95v5.99Z"/><path class="cls-2" d="M83.32,40.02v-7.59h4.18v.69h-3.41v2.72h3.3v.69h-3.3v2.8h3.41v.69h-4.18Z"/><path class="cls-2" d="M87.62,40.13h-4.4v-7.81h4.4v.91h-3.41v2.5h3.3v.91h-3.3v2.58h3.41v.91h0Zm-4.18-.23h3.95v-.46h-3.41v-3.02h3.3v-.46h-3.3v-2.94h3.41v-.46h-3.95v7.36Z"/><path class="cls-2" d="M111.51,38.02h.85c-.77,1.42-1.94,2.12-3.5,2.12-1.13,0-2.08-.37-2.85-1.1-.75-.79-1.14-1.72-1.17-2.8,0-1.13,.37-2.07,1.12-2.82,.75-.74,1.7-1.12,2.84-1.13,1.1,0,2.02,.34,2.74,1.03,.33,.31,.59,.67,.77,1.08h-.86c-.25-.4-.53-.69-.81-.87,0,0-.02-.01-.03-.02-.51-.34-1.11-.51-1.79-.51-.94,0-1.72,.32-2.34,.97-.59,.61-.88,1.36-.88,2.25s.31,1.64,.94,2.28c.63,.63,1.39,.95,2.28,.95,.73,0,1.36-.21,1.89-.63,.21-.16,.46-.42,.77-.8h0Z"/><path class="cls-2" d="M108.86,40.26c-1.16,0-2.14-.38-2.92-1.13-.77-.81-1.17-1.78-1.2-2.88,0-1.16,.39-2.13,1.15-2.9,.77-.77,1.75-1.16,2.92-1.16,1.13,0,2.08,.35,2.82,1.06,.34,.32,.61,.69,.8,1.11l.07,.16h-1.09l-.03-.05c-.25-.38-.51-.66-.78-.84l-.03-.02c-.49-.33-1.07-.49-1.73-.49-.9,0-1.66,.32-2.25,.94-.57,.58-.85,1.32-.85,2.17s.31,1.59,.91,2.2c.6,.6,1.34,.91,2.21,.92,.7,0,1.32-.2,1.82-.6,.2-.15,.45-.41,.75-.78l.03-.04h1.09l-.09,.16c-.79,1.45-2,2.18-3.6,2.18h0Zm-.05-7.86c-1.11,0-2.04,.38-2.76,1.1-.72,.73-1.08,1.65-1.08,2.74,.03,1.05,.41,1.96,1.14,2.73,.74,.7,1.67,1.06,2.76,1.06,1.44,0,2.56-.64,3.3-1.9h-.6c-.3,.37-.54,.62-.75,.78-.55,.43-1.21,.65-1.96,.65-.93,0-1.72-.34-2.37-.99-.65-.66-.97-1.45-.97-2.36s.31-1.7,.91-2.32c.64-.67,1.45-1.01,2.42-1.01,.7,0,1.33,.18,1.85,.53,.01,0,.03,.02,.04,.03,.27,.17,.54,.46,.79,.84h.62c-.17-.33-.4-.63-.67-.88-.7-.66-1.6-1-2.66-1h0Z"/><path class="cls-2" d="M119.41,40.02l3.28-7.59h.86l3.29,7.59h-.84l-1.11-2.56h-3.56l-1.12,2.56h-.81Zm2.21-3.24h2.97l-1.47-3.48-1.5,3.48Z"/><path class="cls-2" d="M127.01,40.13h-1.08l-1.11-2.56h-3.41l-1.12,2.56h-1.05l3.38-7.81h1.01l3.39,7.81Zm-.93-.22h.59l-3.19-7.36h-.71l-3.18,7.36h.56l1.12-2.56h3.7l1.11,2.56h0Zm-1.31-3.02h-3.31l1.67-3.88,1.64,3.88Zm-2.97-.22h2.63l-1.3-3.08-1.33,3.08h0Z"/><path class="cls-2" d="M134.46,40.02v-7.59h1.19l2.78,6.46,2.77-6.46h1.19v7.59h-.76v-6.76l-2.88,6.75h-.66l-2.86-6.75v6.76h-.76Z"/><path class="cls-2" d="M142.51,40.13h-.99v-6.32l-2.69,6.32h-.81l-2.68-6.31v6.31h-.99v-7.81h1.38l2.71,6.28,2.7-6.28h1.38v7.81Zm-.76-.22h.54v-7.36h-1l-2.85,6.63-2.86-6.63h-1v7.36h.54v-7.19l3.05,7.19h.51l3.06-7.19v7.19Z"/><path class="cls-2" d="M150.69,40.02v-7.59h2.11c.92,0,1.6,.13,2.04,.4,.54,.32,.84,.88,.9,1.66,0,.07,0,.15,0,.24,0,.8-.26,1.38-.76,1.75-.4,.29-.99,.44-1.76,.47h-1.77v3.07h-.76Zm.76-3.75h1.42c.68,0,1.17-.09,1.47-.26,.38-.21,.59-.59,.63-1.13v-.14c0-.69-.23-1.15-.69-1.39-.3-.15-.88-.23-1.74-.23h-1.09v3.14h0Z"/><path class="cls-2" d="M151.57,40.13h-.99v-7.81h2.22c.93,0,1.64,.14,2.1,.42,.57,.34,.9,.93,.96,1.75,0,.08,.01,.16,.01,.24,0,.83-.27,1.44-.81,1.84-.42,.3-1.03,.46-1.82,.49h-1.66v3.07h0Zm-.76-.23h.54v-3.07h1.88c.74-.03,1.31-.18,1.69-.45,.48-.35,.72-.89,.72-1.65,0-.08,0-.15,0-.23-.05-.76-.33-1.27-.85-1.58-.42-.26-1.09-.38-1.98-.38h-2v7.36Zm2.07-3.53h-1.53v-3.36h1.2c.88,0,1.46,.08,1.79,.24,.5,.25,.76,.75,.76,1.49v.14c-.04,.59-.28,1-.69,1.23-.32,.18-.81,.27-1.53,.27h0Zm-1.31-.23h1.31c.66,0,1.14-.08,1.41-.24,.35-.2,.54-.54,.58-1.04v-.13c0-.65-.21-1.07-.63-1.29-.29-.14-.85-.21-1.69-.21h-.97v2.92h0Z"/><path class="cls-2" d="M167.25,32.3c1.05,0,1.97,.35,2.74,1.06l.34,.34c.63,.74,.95,1.59,.95,2.54,0,1.01-.35,1.89-1.07,2.64-.7,.74-1.55,1.17-2.56,1.26-.14,.01-.27,.02-.4,.02-1.07,0-2-.36-2.78-1.08-.76-.71-1.18-1.57-1.25-2.6,0-.1-.01-.2-.01-.3,0-.98,.35-1.84,1.07-2.59,.69-.74,1.53-1.16,2.53-1.27,.14-.01,.29-.02,.44-.02Zm0,.7c-.88,0-1.63,.31-2.28,.92-.64,.67-.97,1.43-.99,2.28,0,.9,.32,1.66,.95,2.3,.64,.64,1.41,.95,2.32,.95s1.64-.31,2.28-.93c.64-.66,.97-1.42,.98-2.28,0-.88-.32-1.64-.95-2.28l-.34-.3c-.58-.44-1.24-.67-1.97-.67h0Z"/><path class="cls-2" d="M167.25,40.26c-1.1,0-2.06-.37-2.86-1.11-.78-.72-1.21-1.62-1.29-2.67,0-.1-.01-.2-.01-.31,0-1,.37-1.9,1.1-2.66,.71-.75,1.58-1.19,2.6-1.31,.15-.01,.3-.02,.46-.02,1.08,0,2.03,.37,2.82,1.09l.34,.34c.66,.76,.99,1.64,.99,2.62,0,1.03-.37,1.94-1.1,2.71-.71,.76-1.6,1.2-2.63,1.3-.14,.01-.28,.02-.42,.02h0Zm0-7.86c-.15,0-.29,0-.43,.02-.97,.11-1.8,.52-2.46,1.24-.69,.72-1.04,1.57-1.04,2.51,0,.1,0,.2,0,.29,.07,.99,.48,1.84,1.22,2.52,.75,.69,1.66,1.05,2.7,1.05,.13,0,.26,0,.39-.02,.98-.09,1.82-.51,2.49-1.23,.69-.73,1.04-1.59,1.04-2.56,0-.92-.31-1.75-.92-2.46l-.34-.33c-.74-.68-1.64-1.02-2.66-1.02h0Zm0,7.15c-.93,0-1.74-.33-2.4-.99-.65-.66-.99-1.45-.99-2.38,.02-.88,.37-1.67,1.02-2.36,.66-.64,1.46-.96,2.36-.96,.74,0,1.43,.23,2.03,.69l.35,.3c.66,.66,.99,1.45,.99,2.36-.01,.89-.35,1.68-1.01,2.36-.65,.64-1.45,.97-2.36,.97h0Zm0-6.46c-.84,0-1.58,.3-2.2,.89-.61,.64-.94,1.39-.96,2.2,0,.86,.31,1.61,.92,2.22,.62,.61,1.37,.92,2.24,.92s1.59-.3,2.2-.9c.62-.63,.94-1.37,.95-2.2,0-.85-.31-1.59-.92-2.2l-.34-.29c-.56-.42-1.2-.64-1.89-.64Z"/></g></g></svg>